<svg width="119" height="48" viewBox="0 0 119 48" fill="none" xmlns="http://www.w3.org/2000/svg">
<path d="M23.148 12.3647H28.1957C28.2853 12.3647 28.3749 12.4254 28.3749 12.5166V30.4712C28.3749 30.5624 28.4346 30.6231 28.5243 30.6231H41.6663C41.8156 30.6535 41.8754 30.7143 41.8754 30.8054V35.0283C41.8754 35.1194 41.7858 35.2105 41.6663 35.2105H25.7764C24.2232 35.2105 22.9688 34.1472 22.9688 32.8409V12.5469C22.9688 12.4254 23.0285 12.3647 23.148 12.3647Z" fill="#29292D"/>
<path d="M0.17921 16.9521C0.089605 16.9521 0 16.8913 0 16.8002V14.7343C0 13.428 1.25447 12.3647 2.80762 12.3647H18.817C18.9664 12.3951 19.0261 12.4558 19.0261 12.547V16.7698C19.0261 16.8609 18.9365 16.9521 18.817 16.9521H0.17921ZM0.0298684 21.5699C0.0298684 21.4787 0.0896051 21.418 0.209078 21.418H18.7872C18.9365 21.418 18.9962 21.4787 18.9962 21.5699V25.9142C18.9962 26.0054 18.9365 26.0661 18.7872 26.0661H5.58537C5.49577 26.0661 5.43603 26.0965 5.43603 26.1877V34.9979C5.43603 35.089 5.37629 35.1498 5.25682 35.1498H0.209078C0.0597368 35.1498 0 35.089 0 34.9675V21.5699H0.0298684Z" fill="#29292D"/>
<path d="M60.066 16.1622H50.6874V21.4483H47.5811V9.26587C47.5811 8.38484 48.268 7.6861 49.1342 7.6861H60.066V10.8456H50.6874V12.9419H60.066V16.1622Z" fill="#29292D"/>
<path d="M63.2017 21.4483V7.6861H66.3378V21.4483H63.2017Z" fill="#29292D"/>
<path d="M83.0044 18.2584V21.4483H79.8981V18.2584C79.8981 17.9546 79.8085 17.7116 79.5994 17.4989C79.3903 17.2862 79.1514 17.1951 78.8527 17.1951H72.6102V21.4179H69.5039V7.6861H78.8826C79.4501 7.6861 79.9877 7.80762 80.4954 8.02028C81.0032 8.23294 81.4512 8.53674 81.8096 8.93168C82.1979 9.32663 82.4966 9.75195 82.7057 10.2684C82.9148 10.7849 83.0342 11.3317 83.0342 11.9089V12.9722C83.0342 13.4583 82.9446 13.914 82.7953 14.3697C82.646 14.8254 82.407 15.2508 82.1083 15.6153C82.407 15.9799 82.646 16.4052 82.7953 16.8609C82.9446 17.3166 83.0044 17.7723 83.0044 18.2584ZM79.8981 12.9722V11.9089C79.8981 11.6051 79.8085 11.3621 79.5994 11.1494C79.3903 10.9368 79.1514 10.8456 78.8527 10.8456H72.6102V14.0052H78.8527C79.1215 14.0052 79.3903 13.914 79.5994 13.7014C79.8085 13.5191 79.8981 13.276 79.8981 12.9722Z" fill="#29292D"/>
<path d="M99.6711 7.6861V10.8456H90.2925C90.0237 10.8456 89.7548 10.9368 89.5458 11.1494C89.3367 11.3621 89.2471 11.6051 89.2471 11.9089C89.2471 12.2127 89.3367 12.4558 89.5458 12.6684C89.7548 12.8811 89.9938 12.9722 90.2925 12.9722H95.4896C95.9973 12.9722 96.4752 13.0634 96.9232 13.2457C97.4011 13.4279 97.8193 13.671 98.1777 14.0052C98.5361 14.309 98.8647 14.7039 99.1036 15.1292C99.3724 15.5849 99.5218 16.0406 99.5815 16.5571C99.5815 16.6786 99.6114 16.7698 99.6114 16.8913C99.6114 17.0128 99.6114 17.1039 99.6114 17.2255C99.6114 17.8027 99.4919 18.3495 99.2828 18.866C99.0738 19.3825 98.7751 19.8382 98.3868 20.2027C97.9985 20.5977 97.5803 20.9015 97.0726 21.1141C96.5648 21.3268 96.0272 21.4483 95.4597 21.4483H86.0811V18.2888H95.4597C95.7285 18.2888 95.9973 18.1976 96.2064 17.985C96.4155 17.7723 96.5051 17.5293 96.5051 17.2255C96.5051 16.952 96.4155 16.6786 96.2064 16.466C95.9973 16.2533 95.7584 16.1622 95.4597 16.1622H90.2626C89.6951 16.1622 89.1575 16.0406 88.6497 15.828C88.142 15.6153 87.6939 15.3115 87.3355 14.9166C86.9472 14.5216 86.6485 14.0963 86.4395 13.5798C86.2304 13.0634 86.1109 12.5165 86.1109 11.9393C86.1109 11.3621 86.2304 10.8153 86.4395 10.2988C86.6485 9.78233 86.9472 9.32663 87.3355 8.96206C87.7238 8.56712 88.142 8.26332 88.6497 8.05066C89.1575 7.838 89.6951 7.71648 90.2626 7.71648H99.6711V7.6861Z" fill="#29292D"/>
<path d="M114.217 10.8456H110.065V21.4483H106.959V10.8456H102.807V7.6861H112.694C113.56 7.6861 114.247 8.38484 114.247 9.26587V10.8456H114.217Z" fill="#29292D"/>
<path d="M60.0657 39.5245H49.0741C48.208 39.5245 47.521 38.8258 47.521 37.9448V25.7623H50.6572V36.365H60.0358V39.5245H60.0657Z" fill="#29292D"/>
<path d="M76.732 25.7623V39.5245H73.5958V36.365H66.308V39.5245H63.2017V32.1118C63.2017 31.2308 63.351 30.4105 63.6796 29.651C64.0081 28.8915 64.4561 28.1927 65.0236 27.6155C65.5911 27.0383 66.2482 26.5826 66.9949 26.2484C67.7416 25.9142 68.5481 25.7623 69.4143 25.7623H76.732ZM73.5958 33.2055V28.9522H69.4441C69.026 28.9522 68.6078 29.0434 68.2494 29.1953C67.8611 29.3776 67.5326 29.5902 67.2637 29.894C66.9949 30.1675 66.756 30.5016 66.5768 30.8966C66.3976 31.2915 66.3378 31.6865 66.3378 32.1118V33.1751H73.5958V33.2055Z" fill="#29292D"/>
<path d="M92.353 32.1118V37.9448C92.353 38.8258 91.6661 39.5245 90.7999 39.5245H89.2467V32.1118C89.2467 31.6865 89.1571 31.2611 89.0078 30.8662C88.8286 30.4713 88.6195 30.1371 88.3208 29.8637C88.052 29.5902 87.6936 29.3472 87.3352 29.1953C86.9469 29.0434 86.5586 28.9522 86.1106 28.9522H83.0043V39.5549H79.8979V25.7623H86.1404C87.0066 25.7623 87.813 25.9446 88.5598 26.2484C89.3065 26.5826 89.9934 27.0383 90.5609 27.6155C91.1284 28.1927 91.5765 28.8611 91.905 29.6206C92.2336 30.3801 92.353 31.2308 92.353 32.1118Z" fill="#29292D"/>
<path d="M34.4679 8.32411C35.3639 8.32411 36.0808 9.05323 36.0808 9.96464V37.5194C36.0808 38.4309 35.3639 39.16 34.4679 39.16H7.37733C6.48128 39.16 5.76444 38.4309 5.76444 37.5194V9.96464C5.76444 9.05323 6.48128 8.32411 7.37733 8.32411H34.4679ZM34.4679 7.68613H7.37733C6.15273 7.68613 5.13721 8.68867 5.13721 9.96464V37.5194C5.13721 38.765 6.12286 39.798 7.37733 39.798H34.4679C35.6925 39.798 36.708 38.7954 36.708 37.5194V9.96464C36.708 8.68867 35.6925 7.68613 34.4679 7.68613Z" fill="#29292D"/>
</svg>
