<svg width="183" height="68" viewBox="0 0 183 68" fill="none" xmlns="http://www.w3.org/2000/svg">
<path d="M42.6078 17.5166H49.8814C50.0105 17.5166 50.1396 17.6027 50.1396 17.7318V43.1676C50.1396 43.2967 50.2257 43.3828 50.3548 43.3828H69.2918C69.5069 43.4259 69.593 43.5119 69.593 43.641V49.6234C69.593 49.7525 69.4639 49.8816 69.2918 49.8816H46.3952C44.1572 49.8816 42.3496 48.3753 42.3496 46.5246V17.7749C42.3496 17.6027 42.4357 17.5166 42.6078 17.5166Z" fill="white"/>
<path d="M9.51092 24.0155C9.3818 24.0155 9.25269 23.9294 9.25269 23.8003V20.8737C9.25269 19.023 11.0603 17.5167 13.2983 17.5167H36.367C36.5822 17.5597 36.6683 17.6458 36.6683 17.7749V23.7573C36.6683 23.8864 36.5391 24.0155 36.367 24.0155H9.51092ZM9.29572 30.5573C9.29572 30.4282 9.3818 30.3422 9.55396 30.3422H36.3239C36.5391 30.3422 36.6252 30.4282 36.6252 30.5573V36.7119C36.6252 36.841 36.5391 36.9271 36.3239 36.9271H17.3009C17.1718 36.9271 17.0857 36.9701 17.0857 37.0992V49.5804C17.0857 49.7095 16.9996 49.7956 16.8275 49.7956H9.55396C9.33876 49.7956 9.25269 49.7095 9.25269 49.5374V30.5573H9.29572Z" fill="white"/>
<path d="M95.8041 22.8964H82.29V30.3851H77.814V13.1266C77.814 11.8785 78.8039 10.8886 80.052 10.8886H95.8041V15.3647H82.29V18.3343H95.8041V22.8964Z" fill="white"/>
<path d="M100.322 30.3851V10.8886H104.841V30.3851H100.322Z" fill="white"/>
<path d="M128.857 25.8661V30.3851H124.381V25.8661C124.381 25.4357 124.252 25.0914 123.951 24.7901C123.65 24.4888 123.305 24.3597 122.875 24.3597H113.88V30.3421H109.404V10.8886H122.918C123.736 10.8886 124.51 11.0608 125.242 11.3621C125.974 11.6633 126.619 12.0937 127.136 12.6532C127.695 13.2127 128.126 13.8153 128.427 14.5469C128.728 15.2786 128.9 16.0533 128.9 16.871V18.3774C128.9 19.066 128.771 19.7115 128.556 20.3571C128.341 21.0027 127.996 21.6052 127.566 22.1217C127.996 22.6382 128.341 23.2407 128.556 23.8863C128.771 24.5319 128.857 25.1774 128.857 25.8661ZM124.381 18.3774V16.871C124.381 16.4406 124.252 16.0963 123.951 15.795C123.65 15.4938 123.305 15.3647 122.875 15.3647H113.88V19.8407H122.875C123.262 19.8407 123.65 19.7115 123.951 19.4103C124.252 19.152 124.381 18.8077 124.381 18.3774Z" fill="white"/>
<path d="M152.873 10.8886V15.3647H139.359C138.972 15.3647 138.585 15.4938 138.283 15.795C137.982 16.0963 137.853 16.4406 137.853 16.871C137.853 17.3014 137.982 17.6457 138.283 17.947C138.585 18.2482 138.929 18.3774 139.359 18.3774H146.848C147.58 18.3774 148.268 18.5065 148.914 18.7647C149.602 19.0229 150.205 19.3672 150.721 19.8407C151.238 20.271 151.711 20.8306 152.056 21.4331C152.443 22.0787 152.658 22.7242 152.744 23.4559C152.744 23.6281 152.787 23.7572 152.787 23.9293C152.787 24.1015 152.787 24.2306 152.787 24.4028C152.787 25.2205 152.615 25.9952 152.314 26.7268C152.013 27.4585 151.582 28.1041 151.023 28.6205C150.463 29.18 149.861 29.6104 149.129 29.9117C148.397 30.213 147.623 30.3851 146.805 30.3851H133.291V25.9091H146.805C147.192 25.9091 147.58 25.78 147.881 25.4787C148.182 25.1774 148.311 24.8331 148.311 24.4028C148.311 24.0154 148.182 23.6281 147.881 23.3268C147.58 23.0255 147.235 22.8964 146.805 22.8964H139.316C138.498 22.8964 137.724 22.7242 136.992 22.423C136.26 22.1217 135.615 21.6913 135.098 21.1318C134.539 20.5723 134.108 19.9698 133.807 19.2381C133.506 18.5065 133.334 17.7318 133.334 16.914C133.334 16.0963 133.506 15.3216 133.807 14.59C134.108 13.8583 134.539 13.2127 135.098 12.6963C135.658 12.1368 136.26 11.7064 136.992 11.4051C137.724 11.1038 138.498 10.9317 139.316 10.9317H152.873V10.8886Z" fill="white"/>
<path d="M173.833 15.3647H167.85V30.3851H163.374V15.3647H157.392V10.8886H171.638C172.886 10.8886 173.876 11.8785 173.876 13.1266V15.3647H173.833Z" fill="white"/>
<path d="M95.8037 55.9931H79.9655C78.7174 55.9931 77.7275 55.0032 77.7275 53.7551V36.4966H82.2466V51.5171H95.7607V55.9931H95.8037Z" fill="white"/>
<path d="M119.819 36.4966V55.9931H115.3V51.5171H104.798V55.9931H100.322V45.4917C100.322 44.2436 100.537 43.0815 101.011 42.0056C101.484 40.9296 102.13 39.9397 102.948 39.122C103.765 38.3043 104.712 37.6587 105.788 37.1853C106.864 36.7118 108.026 36.4966 109.274 36.4966H119.819ZM115.3 47.0411V41.0157H109.317C108.715 41.0157 108.112 41.1448 107.596 41.36C107.036 41.6182 106.563 41.9195 106.176 42.3499C105.788 42.7372 105.444 43.2107 105.186 43.7702C104.927 44.3297 104.841 44.8892 104.841 45.4917V46.9981H115.3V47.0411Z" fill="white"/>
<path d="M142.328 45.4917V53.7551C142.328 55.0032 141.338 55.9931 140.09 55.9931H137.852V45.4917C137.852 44.8892 137.723 44.2866 137.508 43.7271C137.25 43.1676 136.948 42.6942 136.518 42.3068C136.131 41.9195 135.614 41.5752 135.098 41.36C134.538 41.1448 133.979 41.0157 133.333 41.0157H128.857V56.0361H124.381V36.4966H133.376C134.624 36.4966 135.786 36.7549 136.862 37.1853C137.938 37.6587 138.928 38.3043 139.746 39.122C140.564 39.9397 141.209 40.8866 141.683 41.9625C142.156 43.0385 142.328 44.2436 142.328 45.4917Z" fill="white"/>
<path d="M58.9191 11.7925C60.2103 11.7925 61.2432 12.8254 61.2432 14.1166V53.1526C61.2432 54.4437 60.2103 55.4767 58.9191 55.4767H19.8832C18.592 55.4767 17.5591 54.4437 17.5591 53.1526V14.1166C17.5591 12.8254 18.592 11.7925 19.8832 11.7925H58.9191ZM58.9191 10.8887H19.8832C18.1186 10.8887 16.6553 12.309 16.6553 14.1166V53.1526C16.6553 54.9172 18.0755 56.3805 19.8832 56.3805H58.9191C60.6837 56.3805 62.147 54.9602 62.147 53.1526V14.1166C62.147 12.309 60.6837 10.8887 58.9191 10.8887Z" fill="white"/>
</svg>
