<svg width="119" height="48" fill="none" xmlns="http://www.w3.org/2000/svg"><path d="M23.148 12.365h5.048c.09 0 .179.06.179.152V30.47c0 .091.06.152.15.152h13.141c.15.03.21.091.21.182v4.223c0 .091-.09.183-.21.183h-15.89c-1.553 0-2.807-1.064-2.807-2.37V12.547c0-.122.06-.182.179-.182ZM.18 16.952c-.09 0-.18-.06-.18-.152v-2.066c0-1.306 1.254-2.37 2.808-2.37h16.009c.15.031.21.092.21.183v4.223c0 .09-.09.182-.21.182H.179ZM.03 21.57c0-.091.06-.152.18-.152h18.577c.15 0 .21.06.21.152v4.344c0 .091-.06.152-.21.152H5.585c-.09 0-.149.03-.149.122v8.81c0 .091-.06.152-.18.152H.21c-.15 0-.209-.061-.209-.182V21.57h.03Zm60.036-5.408h-9.379v5.286h-3.106V9.266c0-.881.687-1.58 1.553-1.58h10.932v3.16h-9.379v2.096h9.379v3.22Zm3.136 5.286V7.686h3.136v13.762h-3.136Zm19.802-3.19v3.19h-3.106v-3.19c0-.303-.09-.546-.299-.76a.982.982 0 0 0-.746-.303H72.61v4.223h-3.106V7.686h9.379c.567 0 1.105.122 1.612.334.508.213.956.517 1.315.912.388.395.687.82.896 1.336.209.517.328 1.064.328 1.64v1.064c0 .486-.09.942-.239 1.398a3.89 3.89 0 0 1-.687 1.245c.299.365.538.79.687 1.246.15.456.21.911.21 1.397Zm-3.106-5.286V11.91c0-.304-.09-.547-.299-.76a.982.982 0 0 0-.746-.303H72.61v3.16h6.243c.269 0 .537-.092.746-.305.21-.182.3-.425.3-.729Zm19.773-5.286v3.16h-9.379a1.028 1.028 0 0 0-1.045 1.063c0 .304.09.547.299.76a.982.982 0 0 0 .746.303h5.198c.507 0 .985.091 1.433.274a3.77 3.77 0 0 1 1.255.76 4.2 4.2 0 0 1 .926 1.123c.268.456.418.912.478 1.428 0 .122.03.213.03.334v.335c0 .577-.12 1.123-.33 1.64a3.739 3.739 0 0 1-.895 1.337 3.953 3.953 0 0 1-1.314.911 4.145 4.145 0 0 1-1.613.334h-9.38v-3.16h9.379a1.028 1.028 0 0 0 1.045-1.063c0-.273-.09-.546-.299-.759a.982.982 0 0 0-.746-.304h-5.197a4.146 4.146 0 0 1-1.613-.334 3.675 3.675 0 0 1-1.315-.911 4.026 4.026 0 0 1-.895-1.337 4.34 4.34 0 0 1-.33-1.64c0-.578.12-1.125.33-1.641a3.74 3.74 0 0 1 .895-1.337 3.955 3.955 0 0 1 1.315-.911 4.145 4.145 0 0 1 1.613-.335h9.408v-.03Zm14.546 3.16h-4.152v10.602h-3.106V10.846h-4.152v-3.16h9.887c.866 0 1.553.699 1.553 1.58v1.58h-.03ZM60.066 39.525H49.074c-.866 0-1.553-.7-1.553-1.58V25.762h3.136v10.603h9.379v3.16h.03Zm16.666-13.763v13.763h-3.136v-3.16h-7.288v3.16h-3.106v-7.413c0-.881.149-1.702.478-2.461a6.669 6.669 0 0 1 1.344-2.035 6.413 6.413 0 0 1 1.97-1.368c.748-.334 1.554-.486 2.42-.486h7.318Zm-3.136 7.444v-4.254h-4.152c-.418 0-.836.091-1.195.243-.388.183-.716.395-.985.699a3.476 3.476 0 0 0-.687 1.003c-.18.395-.24.79-.24 1.215v1.063h7.259v.03Zm18.757-1.094v5.833c0 .88-.687 1.58-1.553 1.58h-1.553v-7.413c0-.426-.09-.85-.24-1.246-.178-.395-.388-.729-.686-1.002a3.16 3.16 0 0 0-.986-.669 3.264 3.264 0 0 0-1.224-.243h-3.107v10.603h-3.106V25.762h6.242a6.39 6.39 0 0 1 2.42.486 6.56 6.56 0 0 1 2 1.367 6.53 6.53 0 0 1 1.345 2.006c.329.76.448 1.61.448 2.49Z" fill="#29292D"/><path d="M34.468 8.324c.896 0 1.613.73 1.613 1.64V37.52a1.62 1.62 0 0 1-1.613 1.641H7.378a1.62 1.62 0 0 1-1.614-1.64V9.964c0-.912.717-1.64 1.613-1.64h27.09Zm0-.638H7.378c-1.225 0-2.24 1.003-2.24 2.279v27.554c0 1.246.985 2.279 2.24 2.279h27.09c1.224 0 2.24-1.003 2.24-2.279V9.965c0-1.276-1.015-2.279-2.24-2.279Z" fill="#29292D"/></svg>