<svg width="183" height="68" fill="none" xmlns="http://www.w3.org/2000/svg"><path d="M42.608 17.517h7.273c.13 0 .259.086.259.215v25.436c0 .129.086.215.215.215h18.937c.215.043.301.129.301.258v5.982c0 .13-.13.259-.301.259H46.395c-2.238 0-4.045-1.507-4.045-3.357v-28.75c0-.172.086-.258.258-.258ZM9.51 24.015c-.128 0-.257-.086-.257-.215v-2.926c0-1.851 1.807-3.357 4.045-3.357h23.069c.215.043.301.129.301.258v5.982c0 .13-.129.258-.301.258H9.511Zm-.214 6.542c0-.129.086-.215.258-.215h26.77c.215 0 .301.086.301.215v6.155c0 .129-.086.215-.301.215H17.3c-.13 0-.215.043-.215.172V49.58c0 .13-.086.216-.258.216H9.553c-.215 0-.301-.087-.301-.259v-18.98h.043Zm86.508-7.661H82.29v7.49h-4.476v-17.26c0-1.247.99-2.237 2.238-2.237h15.752v4.476H82.29v2.97h13.514v4.561Zm4.518 7.489V10.89h4.519v19.496h-4.519Zm28.535-4.519v4.52h-4.476v-4.52c0-.43-.129-.775-.43-1.076-.301-.301-.646-.43-1.076-.43h-8.995v5.982h-4.476V10.89h13.514a6.06 6.06 0 0 1 2.324.473 5.298 5.298 0 0 1 1.894 1.291c.559.56.99 1.162 1.291 1.894.301.732.473 1.506.473 2.324v1.506c0 .689-.129 1.335-.344 1.98a5.49 5.49 0 0 1-.99 1.765 5.49 5.49 0 0 1 .99 1.764c.215.646.301 1.291.301 1.98Zm-4.476-7.489v-1.506c0-.43-.129-.775-.43-1.076-.301-.301-.646-.43-1.076-.43h-8.995v4.476h8.995a1.5 1.5 0 0 0 1.076-.43c.301-.259.43-.603.43-1.034Zm28.492-7.488v4.476h-13.514c-.387 0-.774.129-1.076.43-.301.301-.43.646-.43 1.076 0 .43.129.775.43 1.076.302.301.646.43 1.076.43h7.489c.732 0 1.42.13 2.066.388.688.258 1.291.602 1.807 1.076.517.43.99.99 1.335 1.592.387.646.602 1.291.688 2.023 0 .172.043.301.043.473v.474c0 .818-.172 1.592-.473 2.324a5.297 5.297 0 0 1-1.291 1.893c-.56.56-1.162.99-1.894 1.292a6.06 6.06 0 0 1-2.324.473h-13.514V25.91h13.514c.387 0 .775-.129 1.076-.43.301-.302.43-.646.43-1.076 0-.388-.129-.775-.43-1.076-.301-.302-.646-.43-1.076-.43h-7.489a6.062 6.062 0 0 1-2.324-.474 5.3 5.3 0 0 1-1.894-1.291c-.559-.56-.99-1.162-1.291-1.894a6.065 6.065 0 0 1-.473-2.324c0-.818.172-1.592.473-2.324a5.297 5.297 0 0 1 1.291-1.894c.56-.56 1.162-.99 1.894-1.29a6.06 6.06 0 0 1 2.324-.474h13.557v-.043Zm20.96 4.476h-5.983v15.02h-4.476v-15.02h-5.982v-4.476h14.246c1.248 0 2.238.99 2.238 2.238v2.238h-.043ZM95.804 55.993H79.966a2.223 2.223 0 0 1-2.238-2.238V36.497h4.519v15.02H95.76v4.476h.043Zm24.015-19.496v19.496H115.3v-4.476h-10.502v4.476h-4.476V45.492c0-1.248.215-2.41.689-3.486.473-1.076 1.119-2.066 1.937-2.884a9.233 9.233 0 0 1 2.84-1.937c1.076-.473 2.238-.688 3.486-.688h10.545ZM115.3 47.04v-6.025h-5.983a4.55 4.55 0 0 0-1.721.344c-.56.258-1.033.56-1.42.99-.388.387-.732.86-.99 1.42-.259.56-.345 1.12-.345 1.722v1.506H115.3v.043Zm27.028-1.548v8.263c0 1.248-.99 2.238-2.238 2.238h-2.238V45.492c0-.603-.129-1.205-.344-1.765-.258-.56-.56-1.033-.99-1.42a4.561 4.561 0 0 0-1.42-.947 4.775 4.775 0 0 0-1.765-.344h-4.476v15.02h-4.476v-19.54h8.995a9.31 9.31 0 0 1 3.486.69c1.076.473 2.066 1.118 2.884 1.936a9.25 9.25 0 0 1 1.937 2.84c.473 1.076.645 2.282.645 3.53Z" fill="#fff"/><path d="M58.92 11.793a2.314 2.314 0 0 1 2.323 2.324v39.036a2.314 2.314 0 0 1-2.324 2.324H19.883a2.314 2.314 0 0 1-2.324-2.324V14.117a2.314 2.314 0 0 1 2.324-2.325H58.92Zm0-.904H19.882a3.224 3.224 0 0 0-3.228 3.228v39.036a3.223 3.223 0 0 0 3.228 3.227H58.92a3.224 3.224 0 0 0 3.228-3.227V14.117a3.224 3.224 0 0 0-3.228-3.228Z" fill="#fff"/></svg>